<svg width="18" height="16" viewBox="0 0 18 16" fill="none" xmlns="http://www.w3.org/2000/svg">
<path fill-rule="evenodd" clip-rule="evenodd" d="M9.85106 4.57447C9.85106 4.66847 9.77486 4.74468 9.68085 4.74468C9.58685 4.74468 9.51064 4.66847 9.51064 4.57447V1.50907C9.51064 1.4161 9.43408 1.34043 9.33744 1.34043L1.51363 1.34043C1.41762 1.34043 1.34043 1.41749 1.34043 1.51363L1.34043 14.4438C1.34043 14.5398 1.41749 14.617 1.51363 14.617L9.33744 14.617C9.43215 14.617 9.51064 14.539 9.51064 14.4484L9.51064 11.383C9.51064 11.289 9.58685 11.2128 9.68085 11.2128C9.77486 11.2128 9.85106 11.289 9.85106 11.383L9.85106 14.4484C9.85106 14.7275 9.61968 14.9574 9.33744 14.9574L1.51363 14.9574C1.22935 14.9574 1 14.7277 1 14.4438L1 1.51363C1 1.22935 1.22974 1 1.51363 1L9.33744 1C9.6212 1 9.85106 1.22719 9.85106 1.50907V4.57447ZM16.9494 8.09727L12.513 12.5217C12.3527 12.6819 12.112 12.4414 12.2724 12.2811L16.2879 8.26794C16.3549 8.20097 16.3313 8.14872 16.2377 8.14872L3.55241 8.14872C3.45946 8.14872 3.38298 8.07257 3.38298 7.97862C3.38298 7.88743 3.45884 7.80852 3.55241 7.80852L16.2377 7.80852C16.3307 7.80852 16.3538 7.75515 16.2879 7.68932L12.2724 3.67646C12.112 3.51623 12.3527 3.27536 12.513 3.43594L16.9494 7.85425C17.017 7.92153 17.0168 8.03011 16.9494 8.09727Z" fill="white" stroke="white" stroke-width="0.5"/>
</svg>
